<?xml version="1.0" encoding="utf-8"?>
<!-- Generator: Adobe Illustrator 27.6.1, SVG Export Plug-In . SVG Version: 6.00 Build 0)  -->
<svg version="1.1" id="Layer_1" xmlns="http://www.w3.org/2000/svg" xmlns:xlink="http://www.w3.org/1999/xlink" x="0px" y="0px"
	 viewBox="0 0 300 300" style="enable-background:new 0 0 300 300;" xml:space="preserve">
<g>
	<path fill="red" d="M85.99,140.07c0-2.85,0-5.71,0-8.56c0.02-26.59-0.04-53.18,0.1-79.77c0.04-7.92,2.73-14.93,9.72-20.34
		c4.7-3.63,10.18-4.76,15.96-4.79c26.28-0.11,52.57,0.04,78.85-0.06c14.15-0.06,25.92,11.71,25.71,23.47
		c-0.53,28.78-0.19,57.57-0.21,86.35c0,0.64,0,1.27,0,2.6c3.56-3.76,3.79-8.12,5.62-11.8c3.18-6.38,6.47-12.69,10.53-18.62
		c5.39-7.87,11.94-15,18.23-22.29c2.24-2.59,4.42-2.89,7.32-1.4c8.32,4.25,16.62,8.54,24.96,12.75c4.34,2.19,8.66,4.47,13.2,6.28
		c2.57,1.02,2.89,1.71,1.44,3.89c-7.24,10.89-14.35,21.86-21.41,32.85c-6.05,9.41-10.81,19.4-13.69,29.92
		c-1.65,6.02-2.99,12.22-3.43,18.54c-0.46,6.64-1.96,13.21-2.87,19.83c-0.47,3.37-2.01,6.83,3.21,9.03
		c3.42,1.44,2.92,5.31,2.12,8.06c-0.62,2.14-2.47,4.69-5.37,4.82c-3.02,0.14-3,1.49-2.99,3.44c0.04,9.81,0.02,19.62,0.02,29.43
		c0,4.56-3.74,8.53-7.85,8.35c-4.2-0.18-7.29-3.82-7.3-8.41c-0.02-9.81-0.21-19.62-0.12-29.42c0.02-2.56-0.86-3.23-3.63-3.23
		c-54.99,0.07-109.99,0.08-164.98-0.03c-3.43-0.01-3.95,1.09-3.9,3.79c0.15,9.94,0,19.88,0.09,29.82c0.03,3.43-1.94,5.64-4.98,7.08
		c-2.87,1.37-5.28-0.2-7.31-1.85c-2.16-1.76-2.12-4.24-2.12-6.67c0-9.68-0.13-19.36-0.06-29.04c0.02-2.29-0.65-3.23-3.35-3.14
		c-4.6,0.15-6.49-3.12-7.62-6.23c-1.12-3.09,1.24-5.84,3.88-7.39c1.77-1.04,1.83-1.99,1.86-3.37c0.16-7.38-1.61-14.56-2.78-21.81
		c-0.94-5.82-1.87-11.63-3.08-17.42c-1.12-5.34-3.24-10.33-5.21-15.36c-4.65-11.86-11.77-22.57-19.26-33.15
		c-4.2-5.94-7.69-12.33-11.96-18.29c-1.12-1.57-1.48-2.82,1.38-4.08c8.73-3.83,17.13-8.26,25.7-12.39c5.2-2.51,10.52-4.83,15.69-7.4
		c1.71-0.85,2.51-0.28,3.54,0.82c9.86,10.53,19.28,21.42,26.35,33.64C79.92,125.32,83.73,132.39,85.99,140.07z M73.12,197.5
		c-0.07-6.9-2.27-14.53-3.39-22.28c-1.95-13.48-7.29-25.9-13.6-38.04c-3.2-6.16-6.68-12.25-10.73-17.97
		c-2.84-4.02-5.11-8.47-8.95-11.9c-2.78-2.48-6.68-2.6-9.57-0.17c-2.83,2.38-2.53,4.84-0.24,7.49c2.55,2.95,4.62,6.25,6.68,9.44
		c5.1,7.88,9.88,15.96,13.91,24.38c3.09,6.46,5.75,13.1,7.59,19.87c3.11,11.46,4.44,23.24,6.15,34.94c0.49,3.32,4.2,5.03,7.76,4.09
		C74.29,205.88,72.88,201.94,73.12,197.5z M228.17,198.52c0,1.55-0.1,3.1,0.02,4.64c0.2,2.38,3.79,5.04,6.73,4.53
		c2.79-0.49,6.22-1.05,6.08-4.72c-0.32-8.27,1.48-16.4,2.89-24.44c3.03-17.3,9.86-33.55,19.75-48.67
		c3.56-5.44,7.55-10.65,11.01-16.14c2.11-3.33,0.69-6.19-3.18-7.72c-3.57-1.41-7.33,0.21-9.84,4.05c-2.42,3.7-4.97,7.33-7.5,10.98
		c-6.76,9.73-12,20.14-16.41,30.87c-3.19,7.76-5.56,15.74-6.81,24.02C229.76,183.44,228.49,190.93,228.17,198.52z M150.02,195.4
		c18.57,0,37.13,0.01,55.7-0.02c1.6,0,3.24,0.4,4.46-1.42c1.46-2.17,2.07-4.14,0.69-6.45c-1.49-2.49-3.93-3.05-6.84-3.05
		c-25.14-0.01-50.27-0.09-75.41-0.11c-11.14-0.01-22.28,0.03-33.42,0.16c-3.69,0.04-6.15,2.51-6.1,5.68c0.05,3.22,2.3,5.2,6.07,5.21
		C113.46,195.41,131.74,195.4,150.02,195.4z M102.17,144.22c0,5.53-0.01,11.06,0.01,16.6c0.01,3.62,2.12,5.91,5.46,5.99
		c3.58,0.09,5.62-1.84,5.65-5.81c0.07-11.45,0.04-22.9-0.03-34.35c-0.02-3.19-1.46-5.52-5.44-5.62c-3.4-0.08-5.62,2.23-5.64,5.82
		C102.14,132.64,102.16,138.43,102.17,144.22z M151.88,143.94c0,5.94,0.08,11.87-0.05,17.81c-0.04,2.06,0.68,3.42,2.7,4.37
		c4.15,1.95,7.99-0.28,8.17-5.21c0.27-7.35,0.13-14.71,0.14-22.06c0-4.13,0.14-8.27-0.13-12.38c-0.23-3.58-2.72-5.77-5.8-5.42
		c-3.73,0.43-5.24,2.41-5.1,5.87C152.03,132.58,151.87,138.26,151.88,143.94z M190.2,143.56c-0.08,0-0.17,0-0.25,0
		c0-5.92,0.16-11.84-0.07-17.75c-0.11-2.8-1.67-5.05-5.33-4.76c-3.39,0.26-5.36,1.76-5.33,5.21c0.12,11.84,0.15,23.67,0.02,35.51
		c-0.03,3.14,1.77,4.53,4.7,4.92c3.13,0.42,5.18-1.07,5.82-3.87c0.31-1.37,0.41-2.8,0.43-4.21
		C190.23,153.6,190.2,148.58,190.2,143.56z M127.79,143.8c0.01,0,0.02,0,0.03,0c0,6.05,0.04,12.1-0.02,18.15
		c-0.03,3.34,2.24,4.61,5.36,4.73c3.23,0.13,5.05-1.63,5.07-4.53c0.08-12.1,0.12-24.19,0.07-36.29c-0.01-3.09-2.15-4.85-5.42-4.77
		c-3.21,0.07-5.17,1.71-5.12,4.95C127.86,131.96,127.79,137.88,127.79,143.8z"/>
</g>
</svg>
