<?xml version="1.0" encoding="UTF-8"?>
<svg id="Layer_1" data-name="Layer 1" xmlns="http://www.w3.org/2000/svg" viewBox="0 0 300 300">
  <defs>
    <style>
      .cls-1 {
        fill: #d86464;
        stroke-width: 0px;
      }
    </style>
  </defs>
  <path class="cls-1" d="m240.89,300H59.11c-32.64,0-59.11-26.46-59.11-59.11V59.11C0,26.46,26.46,0,59.11,0h181.79c32.64,0,59.11,26.46,59.11,59.11v181.79c0,32.64-26.46,59.11-59.11,59.11ZM78.24,120.26c-6.82-11.79-15.9-22.29-25.41-32.44-.99-1.06-1.76-1.61-3.41-.79-4.99,2.48-10.12,4.72-15.13,7.14-8.27,3.98-16.37,8.26-24.79,11.95-2.76,1.22-2.41,2.42-1.33,3.93,4.12,5.75,7.48,11.91,11.53,17.64,7.22,10.2,14.09,20.53,18.58,31.97,1.9,4.85,3.94,9.66,5.02,14.81,1.17,5.58,2.06,11.19,2.97,16.8,1.13,6.99,2.84,13.92,2.68,21.03-.03,1.33-.09,2.25-1.79,3.25-2.55,1.49-4.82,4.15-3.74,7.13,1.09,3,2.91,6.15,7.35,6.01,2.6-.09,3.25.82,3.23,3.03-.07,9.34.06,18.67.06,28.01,0,2.34-.04,4.74,2.04,6.43,1.96,1.59,4.28,3.11,7.05,1.78,2.93-1.39,4.83-3.52,4.8-6.83-.09-9.59.06-19.17-.09-28.76-.05-2.6.45-3.66,3.76-3.66,53.03.11,106.08.1,159.11.03,2.67,0,3.52.65,3.5,3.12-.09,9.45.1,18.91.12,28.37,0,4.43,2.99,7.94,7.04,8.11,3.96.17,7.57-3.66,7.57-8.05,0-9.46.02-18.92-.02-28.38,0-1.88-.03-3.18,2.88-3.32,2.8-.13,4.58-2.58,5.18-4.65.77-2.65,1.25-6.38-2.04-7.77-5.03-2.12-3.55-5.46-3.1-8.71.88-6.38,2.32-12.72,2.77-19.12.42-6.1,1.72-12.07,3.31-17.88,2.78-10.15,7.37-19.78,13.2-28.86,6.81-10.6,13.67-21.18,20.65-31.68,1.4-2.1,1.09-2.77-1.39-3.75-4.38-1.75-8.54-3.94-12.73-6.06-8.04-4.06-16.05-8.2-24.07-12.3-2.8-1.44-4.9-1.15-7.06,1.35-6.07,7.03-12.38,13.91-17.58,21.5-3.92,5.72-7.09,11.8-10.16,17.96-1.76,3.55-1.99,7.75-5.42,11.38v-2.51c.02-27.76-.31-55.52.2-83.28.2-11.34-11.15-22.69-24.8-22.64-25.35.1-50.7-.05-76.05.06-5.57.03-10.86,1.12-15.39,4.62-6.74,5.22-9.34,11.98-9.37,19.62-.14,25.64-.08,51.29-.1,76.93v8.26c-2.18-7.41-5.85-14.23-9.64-20.78Zm-7,85.67c-3.43.91-7.01-.74-7.48-3.94-1.65-11.28-2.93-22.65-5.93-33.7-1.77-6.53-4.34-12.93-7.32-19.16-3.89-8.12-8.5-15.91-13.42-23.51-1.99-3.08-3.98-6.26-6.44-9.1-2.21-2.56-2.5-4.93.23-7.22,2.79-2.34,6.55-2.23,9.23.16,3.7,3.31,5.89,7.6,8.63,11.48,3.91,5.52,7.26,11.39,10.35,17.33,6.09,11.71,11.24,23.69,13.12,36.69,1.08,7.47,3.2,14.83,3.27,21.49-.23,4.28,1.13,8.08-4.23,9.5Zm156.41-30.31c1.21-7.99,3.49-15.68,6.57-23.17,4.25-10.35,9.31-20.39,15.83-29.77,2.44-3.52,4.9-7.02,7.23-10.59,2.42-3.7,6.05-5.27,9.49-3.91,3.73,1.48,5.1,4.23,3.07,7.45-3.34,5.29-7.19,10.32-10.62,15.57-9.54,14.58-16.13,30.25-19.05,46.94-1.36,7.75-3.1,15.59-2.79,23.57.14,3.54-3.17,4.08-5.86,4.55-2.84.49-6.3-2.07-6.49-4.37-.12-1.49-.02-2.98-.02-4.47.31-7.32,1.53-14.54,2.64-21.8Zm-130.91,18.79c-3.64,0-5.81-1.92-5.85-5.02-.05-3.06,2.32-5.44,5.88-5.48,10.74-.13,21.49-.16,32.23-.15,24.25.02,48.48.1,72.73.11,2.81,0,5.16.54,6.6,2.94,1.33,2.23.74,4.13-.67,6.22-1.18,1.76-2.76,1.37-4.3,1.37-17.91.03-35.81.02-53.72.02s-35.26,0-52.9,0Zm6.76-66.11c.02-3.46,2.16-5.69,5.44-5.61,3.84.1,5.23,2.34,5.25,5.42.07,11.04.1,22.09.03,33.13-.03,3.83-2,5.69-5.45,5.6-3.22-.08-5.26-2.29-5.27-5.78-.02-5.34,0-10.68,0-16.01,0-5.58-.03-11.17,0-16.75Zm47.87.07c-.14-3.34,1.32-5.25,4.92-5.66,2.97-.34,5.37,1.77,5.59,5.23.26,3.96.13,7.96.13,11.94,0,7.09.13,14.19-.14,21.28-.17,4.75-3.88,6.91-7.88,5.02-1.95-.92-2.64-2.23-2.6-4.21.13-5.73.05-11.45.05-17.18,0-5.48.14-10.96-.07-16.41Zm37.02,30.56c-.02,1.36-.12,2.74-.41,4.06-.62,2.7-2.59,4.14-5.61,3.73-2.83-.38-4.56-1.72-4.53-4.75.13-11.42.1-22.83-.02-34.25-.03-3.33,1.87-4.77,5.14-5.02,3.53-.28,5.03,1.89,5.14,4.59.22,5.7.07,11.41.07,17.12h.24c0,4.84.03,9.68,0,14.51Zm-60.21-31.41c-.05-3.12,1.84-4.71,4.94-4.77,3.15-.08,5.22,1.62,5.23,4.6.05,11.67,0,23.33-.07,35-.02,2.8-1.77,4.49-4.89,4.37-3.01-.12-5.2-1.34-5.17-4.56.06-5.83.02-11.67.02-17.5h-.03c0-5.71.07-11.42-.03-17.13Z"/>
</svg>